<?xml version="1.0" encoding="utf-8"?>
<!-- Svg Vector Icons : http://www.onlinewebfonts.com/icon -->
<!DOCTYPE svg PUBLIC "-//W3C//DTD SVG 1.1//EN" "http://www.w3.org/Graphics/SVG/1.1/DTD/svg11.dtd">
<svg version="1.1" xmlns="http://www.w3.org/2000/svg" xmlns:xlink="http://www.w3.org/1999/xlink" x="0px" y="0px" viewBox="0 0 256 256" enable-background="new 0 0 256 256" xml:space="preserve">
<metadata> Svg Vector Icons : http://www.onlinewebfonts.com/icon </metadata>
<g><g><g><path fill="#000000" d="M113.7,10.6C70.3,16.2,34.2,44.2,18,84.9c-2.7,6.9-5.7,18.2-7,26.4c-1.3,8.3-1.3,24.5-0.1,33c5.7,38.7,29.1,71.4,63.7,89c11.9,6,23.3,9.7,36.9,11.8c8.2,1.3,25,1.3,33.3,0c51.1-7.8,90.7-46.3,99.7-96.9c1.4-8.2,1.9-24.6,1.1-32.8C243,92.9,234.3,71.9,220.1,54c-4.4-5.6-14.7-15.6-20.4-19.9c-16.5-12.5-36.1-20.6-56.2-23.2C136.1,9.9,120.3,9.7,113.7,10.6z M152.9,63.4c2.4,1.6,3.3,3.5,5.5,10.7l1.7,5.7h7.4c5.8,0,8.2,0.2,11,1.1c4.3,1.3,9.5,4.7,12.4,7.9c2.6,3.1,5.6,9.3,6.3,13.3c0.4,2.1,0.6,12,0.4,28c-0.2,24-0.2,24.9-1.4,28.1c-3.6,9.5-11.8,16.4-21.6,18.1c-2.6,0.4-17.3,0.6-49,0.4c-44.8-0.2-45.2-0.2-48.4-1.4c-1.7-0.7-4.3-1.8-5.6-2.6c-3.4-2-8.3-7.3-10.1-10.9c-3-5.8-3.1-6.5-3.1-33.9c0-27.4,0.1-27.9,3.2-34.1c2.2-4.3,7.7-9.4,12.8-11.8l4.3-2.1l10-0.3l10-0.3l2.2-6.7c2.4-7.2,2.9-8.2,5.6-9.8c1.6-0.9,3.3-1,23-1h21.4L152.9,63.4z"/><path fill="#000000" d="M119.4,92.9c-6.4,1.6-12.9,5.6-17.8,10.8c-6.3,6.8-9.5,14.9-9.5,24.2c-0.1,6.7,0.8,10.2,3.6,16.1c9.5,19.9,34.3,26.7,52.7,14.5c16.1-10.7,20.9-32.3,11-49.1c-4-6.8-12.1-13.2-19.9-15.8C134.8,92.1,124.1,91.7,119.4,92.9z M137.4,109.2c4.3,2.1,8.2,6.2,10.3,10.5c1.3,2.7,1.5,3.9,1.5,8.4c0,4.7-0.2,5.7-1.7,8.9c-2.1,4.4-5.8,8.3-10.1,10.4c-2.8,1.4-3.7,1.6-9,1.6c-5.2,0-6.2-0.2-9-1.5c-14.5-6.8-16.6-26.8-3.8-36.2C121.9,106.6,130.6,105.8,137.4,109.2z"/></g></g></g>
</svg>